<svg width="100" height="100" viewBox="0 0 100 100" fill="none" xmlns="http://www.w3.org/2000/svg">
<path d="M49.9991 0C22.4287 0 0 22.4287 0 49.9991C0 56.5406 1.29588 62.7739 3.59154 68.5029L4.82902 66.6613L24.2828 33.6619C25.0162 32.416 26.3368 31.641 27.7827 31.6078C29.3327 31.6828 30.5786 32.2953 31.3618 33.5037L35.8826 40.4536L46.4074 22.5955C47.1783 21.2914 48.6574 20.4871 50.1073 20.5496C51.6198 20.5871 52.9989 21.4455 53.6948 22.7912L68.3611 50.9948L74.8569 39.9825C75.586 38.7366 76.911 37.9616 78.3527 37.9284C79.8068 37.9409 81.1527 38.62 81.9402 39.8284L96.8108 62.703L97.8858 64.3114C99.2442 59.774 99.9982 54.974 99.9982 49.9991C99.9982 22.4287 77.5695 0 49.9991 0Z" fill="black"/>
<path d="M49.7704 33.304L20.1793 83.4781L17.3251 87.7614C24.0291 93.5697 32.2748 97.6071 41.3706 99.1987C41.9581 97.7153 42.4371 96.4529 42.6621 95.7322C42.658 94.9906 42.8496 94.2488 43.2412 93.5947L63.37 59.4537L49.7704 33.304Z" fill="black"/>
<path d="M28.048 43.6842L11.8773 71.1046L7.9483 76.9461C9.00668 78.5877 10.1274 80.1877 11.3607 81.6919L13.1273 79.0504L31.1561 48.4675L28.048 43.6842Z" fill="black"/>
<path d="M78.6166 50.009L50.9546 96.9166C50.788 97.7 50.4796 98.6875 49.9962 100H50.0003C69.0375 100 85.6163 89.296 94.0579 73.5963L89.8496 67.2839L78.6166 50.009Z" fill="black"/>
</svg>
