<svg width="100" height="100" viewBox="0 0 100 100" fill="none" xmlns="http://www.w3.org/2000/svg">
<g clip-path="url(#clip0_8_138)">
<path d="M85.7589 84.9412C86.3302 84.3566 86.8872 83.7582 87.4296 83.1463C87.4876 83.0809 87.546 83.0158 87.6036 82.9502C87.7704 82.76 87.9354 82.568 88.0995 82.375C88.1563 82.3082 88.213 82.2412 88.2694 82.174C88.4419 81.9691 88.613 81.7635 88.7821 81.5559C88.8005 81.5332 88.8186 81.5102 88.8372 81.4875C95.8153 72.8908 99.9995 61.9348 99.9995 50C99.9995 22.3863 77.6132 0 49.9995 0C22.3858 0 -0.000488281 22.3863 -0.000488281 50C-0.000488281 77.3086 21.8946 99.5014 49.087 99.9885C49.3569 99.9945 49.6233 99.9979 49.8882 99.9986C49.9255 99.9986 49.9624 100 49.9995 100C50.1007 100 50.2013 99.9967 50.3022 99.9961C50.5741 99.9945 50.846 99.9918 51.1169 99.9857C51.296 99.9818 51.4745 99.9756 51.653 99.9697C51.8534 99.9631 52.0536 99.9559 52.2534 99.9469C52.4511 99.9381 52.6487 99.9285 52.8458 99.9174C53.013 99.908 53.1798 99.8967 53.3466 99.8857C54.196 99.8295 55.0396 99.7523 55.8769 99.6543C55.9155 99.6498 55.9544 99.6457 55.9933 99.641C56.3022 99.6041 56.6103 99.5639 56.9175 99.5213C56.9351 99.5189 56.9524 99.5164 56.97 99.5139C67.4032 98.0582 76.8042 93.3842 84.139 86.5256C84.1845 86.483 84.2304 86.441 84.2757 86.3984C84.4585 86.2262 84.6394 86.0523 84.8196 85.8773C84.8936 85.8057 84.9673 85.7336 85.0409 85.6613C85.214 85.4912 85.3862 85.3205 85.5569 85.1479C85.6247 85.0795 85.6915 85.01 85.7589 84.9412ZM49.9995 8.3334C73.0108 8.3334 91.6661 26.9887 91.6661 50C91.6661 51.4963 91.5855 52.9734 91.4317 54.4289L81.9399 39.8281C80.2538 37.2344 76.429 37.3178 74.8575 39.9826L68.3632 50.9951L53.6976 22.7895C52.6593 20.7928 50.3894 20.1174 48.5323 20.807C47.6878 21.1199 46.9282 21.7148 46.4085 22.5963L36.471 39.4463C36.4558 39.4723 36.4423 39.499 36.4274 39.5254L35.8817 40.4508L31.3685 33.5072C29.6825 30.9135 25.8577 30.9967 24.286 33.6611L9.31865 59.0367C8.6751 56.1268 8.33291 53.1035 8.33291 50C8.33291 26.9887 26.9882 8.3334 49.9995 8.3334ZM83.0366 75.3883C82.628 75.9197 82.2065 76.4402 81.7737 76.95C81.7448 76.9842 81.7161 77.0186 81.687 77.0525C81.5575 77.2041 81.4269 77.3543 81.2954 77.5039C81.2474 77.5586 81.1989 77.6127 81.1505 77.6672C80.8747 77.9775 80.595 78.2844 80.3103 78.5861C80.3062 78.5904 80.3021 78.5949 80.298 78.5992C80.1657 78.7393 80.0321 78.8775 79.8981 79.0156C79.8409 79.0746 79.7835 79.1334 79.7259 79.1922C79.2847 79.6412 78.8339 80.0803 78.3733 80.5084C78.3378 80.5414 78.3024 80.5746 78.2669 80.6074C78.1075 80.7545 77.9474 80.9008 77.7856 81.0453C77.7827 81.0479 77.7798 81.0504 77.7769 81.0531C71.5124 86.657 63.5837 90.3465 54.9405 91.3734C54.895 91.3787 54.8495 91.3838 54.804 91.3891C54.5948 91.4133 54.3855 91.4365 54.1755 91.4576L71.7228 61.7031C71.7243 61.7006 71.7255 61.6979 71.7271 61.6953L78.6189 50.009L88.6808 65.4865C87.2456 69.0721 85.3395 72.3902 83.0466 75.375C83.0433 75.3795 83.0399 75.384 83.0366 75.3883ZM49.7698 33.3057L63.3716 59.4592L44.5915 91.3047C36.0231 90.1924 28.1114 86.46 21.8286 80.6852L35.9351 56.765L49.7698 33.3057ZM28.771 52.508L16.0298 74.1119C14.9124 72.5398 13.904 70.8904 13.0132 69.1756L28.0468 43.6877L31.1538 48.4676L28.771 52.508Z" fill="black"/>
</g>
<defs>
<clipPath id="clip0_8_138">
<rect width="100" height="100" fill="white" transform="translate(-0.000488281)"/>
</clipPath>
</defs>
</svg>
